# xmcd CD database file
#
# Track frame offsets:
#	150
#	20585
#	35279
#	47937
#	63176
#	75636
#	90901
#	105133
#	116286
#	132289
#	147476
#
# Disc length: 2232 seconds
#
# Revision: 0
# Processed by: cddbd v1.5.1PL0 Copyright (c) Steve Scherf et al.
# Submitted via: CDex 1.50beta9
#
DISCID=8108b60b
DTITLE=Frank James - All Over Again
DYEAR=2005
DGENRE=Country
TTITLE0=When The Cowboys Are Gone
TTITLE1=All Over Again
TTITLE2=What's A Girl Like You
TTITLE3=The Ballad Of Shirley D.
TTITLE4=I Can Get Down
TTITLE5=(Big Brother Bill's) Rusty Old '49 Ford
TTITLE6=The Wild One
TTITLE7=The Easy Way Out
TTITLE8=Red Hot Coffee
TTITLE9=Cold Water Flats
TTITLE10=American Medley
EXTD=YEAR: 2005
EXTT0=
EXTT1=
EXTT2=
EXTT3=
EXTT4=
EXTT5=
EXTT6=
EXTT7=
EXTT8=
EXTT9=
EXTT10=
PLAYORDER=
